<?xml version="1.0" encoding="UTF-8" standalone="no"?>
<!DOCTYPE svg PUBLIC "-//W3C//DTD SVG 1.1//EN" "http://www.w3.org/Graphics/SVG/1.1/DTD/svg11.dtd">
<svg width="100%" height="100%" viewBox="0 0 1024 1024" version="1.1" xmlns="http://www.w3.org/2000/svg" xmlns:xlink="http://www.w3.org/1999/xlink" xml:space="preserve" xmlns:serif="http://www.serif.com/" style="fill-rule:evenodd;clip-rule:evenodd;stroke-linecap:round;stroke-linejoin:round;stroke-miterlimit:1.5;">
    <g transform="matrix(1,0,0,1,-1090,-2186)">
        <g id="V1" transform="matrix(1,0,0,1,1090,2186)">
            <rect x="0" y="0" width="1024" height="1024" style="fill:none;"/>
            <clipPath id="_clip1">
                <rect x="0" y="0" width="1024" height="1024"/>
            </clipPath>
            <g clip-path="url(#_clip1)">
                <g transform="matrix(1.10541,0,0,1.10541,-53.968,-53.968)">
                    <circle cx="512" cy="512" r="463.178" style="fill:rgb(112,255,102);"/>
                    <clipPath id="_clip2">
                        <circle cx="512" cy="512" r="463.178"/>
                    </clipPath>
                    <g clip-path="url(#_clip2)">
                        <g transform="matrix(4.73577,0,0,4.73577,-2294.67,-1425.23)">
                            <path d="M548.492,343.739C561.097,335.195 576.297,330.204 592.654,330.204C632.67,330.204 665.764,360.074 670.814,398.711L625.602,398.711C621.283,384.403 608.231,373.868 592.654,373.316L592.654,444.797C604.968,444.377 615.704,437.701 621.794,427.852L653.339,459.396C638.872,476.823 617.049,487.924 592.654,487.924C576.297,487.924 561.097,482.934 548.492,474.389L548.492,343.739ZM534.912,355.4L534.912,462.729C521.807,448.66 513.794,429.79 513.794,409.064C513.794,388.338 521.807,369.469 534.912,355.4Z" style="fill:rgb(20,20,20);stroke:black;stroke-width:0.01px;"/>
                        </g>
                    </g>
                </g>
            </g>
        </g>
    </g>
</svg>
